# File created by Blade
# Date/Time:  Tue Jan 27 17:16:36 2015
#---------------------------------------------------------
:version 1.10
:name HOM
:units
  mass 1.0
  length 1.000000
  angle deg
:documentation
     Acclaim Skeleton File
:root
   axis xyz
   order TX TY TZ RX RY RZ
   position 0.000000 0.000000 0.000000
   orientation 0 0 0
:bonedata
   begin
      id 1
      name Spine_dum
      direction 0.000000 1.000000 0.000000
      length 7.539951
      axis 0.0 0.0 0.0 xyz
   end
   begin
      id 2
      name LeftUpLeg_dum
      direction 1.000000 0.000000 0.000000
      length 3.345476
      axis 0.0 0.0 0.0 xyz
   end
   begin
      id 3
      name RightUpLeg_dum
      direction -1.000000 0.000000 0.000000
      length 3.345476
      axis 0.0 0.0 0.0 xyz
   end
   begin
      id 4
      name Spine
      direction 0.000000 1.000000 0.000000
      length 0.000000
      axis 0.0 0.0 0.0 xyz
      dof rx ry rz
   end
   begin
      id 5
      name Spine_dum1
      direction 0.000000 1.000000 0.000000
      length 15.093809
      axis 0.0 0.0 0.0 xyz
   end
   begin
      id 6
      name Spine_dum2
      direction 0.000000 1.000000 0.000000
      length 9.738928
      axis 0.0 0.0 0.0 xyz
   end
   begin
      id 7
      name Spine_dum3
      direction 0.000000 1.000000 0.000000
      length 9.738928
      axis 0.0 0.0 0.0 xyz
   end
   begin
      id 8
      name Head
      direction 0.000000 1.000000 0.000000
      length 4.527550
      axis 0.0 0.0 0.0 xyz
      dof rx ry rz
   end
   begin
      id 9
      name LeftShoulder
      direction 1.000000 0.000000 0.000000
      length 7.084015
      axis 0.0 0.0 -90.0 xyz
      dof rx ry rz
   end
   begin
      id 10
      name LeftArm
      direction 1.000000 0.000000 0.000000
      length 10.259319
      axis 0.0 0.0 -90.0 xyz
      dof rx ry rz
   end
   begin
      id 11
      name LeftForeArm
      direction 1.000000 0.000000 0.000000
      length 9.896984
      axis 0.0 0.0 -90.0 xyz
      dof ry rz rx
   end
   begin
      id 12
      name LeftHand
      direction 0.000000 0.000000 0.000000
      length 0.000000
      axis 0.0 0.0 -90.0 xyz
      dof rx ry rz
   end
   begin
      id 13
      name LeftHand_dum1
      direction 0.000000 0.000000 0.000000
      length 0.000000
      axis 0.0 0.0 -90.0 xyz
   end
   begin
      id 14
      name LeftHand_dum2
      direction 1.000000 0.000000 0.000000
      length 3.937000
      axis 0.0 0.0 -90.0 xyz
   end
   begin
      id 15
      name LeftHandThumb1
      direction 0.000000 0.000000 1.000000
      length 3.937000
      axis 0.0 0.0 -90.0 xyz
      dof rx rz ry
   end
   begin
      id 16
      name RightShoulder
      direction -1.000000 0.000000 0.000000
      length 7.084015
      axis 0.0 0.0 90.0 xyz
      dof rx ry rz
   end
   begin
      id 17
      name RightArm
      direction -1.000000 0.000000 0.000000
      length 10.259319
      axis 0.0 0.0 90.0 xyz
      dof rx ry rz
   end
   begin
      id 18
      name RightForeArm
      direction -1.000000 0.000000 0.000000
      length 9.896984
      axis 0.0 0.0 90.0 xyz
      dof ry rz rx
   end
   begin
      id 19
      name RightHand
      direction 0.000000 0.000000 0.000000
      length 0.000000
      axis 0.0 0.0 90.0 xyz
      dof rx ry rz
   end
   begin
      id 20
      name RightHand_dum1
      direction 0.000000 0.000000 0.000000
      length 0.000000
      axis 0.0 0.0 90.0 xyz
   end
   begin
      id 21
      name RightHand_dum2
      direction -1.000000 0.000000 0.000000
      length 3.937000
      axis 0.0 0.0 90.0 xyz
   end
   begin
      id 22
      name RightHandThumb1
      direction 0.000000 0.000000 1.000000
      length 3.937000
      axis 0.0 0.0 90.0 xyz
      dof rx rz ry
   end
   begin
      id 23
      name LeftUpLeg
      direction 0.000000 -1.000000 0.000000
      length 19.114733
      axis 0.0 0.0 0.0 xyz
      dof rx ry rz
   end
   begin
      id 24
      name LeftLeg
      direction 0.000000 -1.000000 0.000000
      length 16.045604
      axis 0.0 0.0 0.0 xyz
      dof rx ry rz
   end
   begin
      id 25
      name LeftFoot
      direction 0.000000 -0.258819 0.965926
      length 5.543155
      axis 15.0 0.0 0.0 xyz
      dof rx ry rz
   end
   begin
      id 26
      name LeftToeBase
      direction 0.000000 0.000000 1.000000
      length 2.952750
      axis 0.0 0.0 0.0 xyz
      dof rx ry rz
   end
   begin
      id 27
      name RightUpLeg
      direction 0.000000 -1.000000 0.000000
      length 19.114733
      axis 0.0 0.0 0.0 xyz
      dof rx ry rz
   end
   begin
      id 28
      name RightLeg
      direction 0.000000 -1.000000 0.000000
      length 16.045604
      axis 0.0 0.0 0.0 xyz
      dof rx ry rz
   end
   begin
      id 29
      name RightFoot
      direction 0.000000 -0.258819 0.965926
      length 5.543155
      axis 15.0 0.0 0.0 xyz
      dof rx ry rz
   end
   begin
      id 30
      name RightToeBase
      direction 0.000000 0.000000 1.000000
      length 2.952750
      axis 0.0 0.0 0.0 xyz
      dof rx ry rz
   end
:hierarchy
   begin
      root Spine_dum LeftUpLeg_dum RightUpLeg_dum
      Spine_dum Spine
      LeftUpLeg_dum LeftUpLeg
      RightUpLeg_dum RightUpLeg
      Spine Spine_dum1 Spine_dum2 Spine_dum3
      Spine_dum1 Head
      Spine_dum2 LeftShoulder
      Spine_dum3 RightShoulder
      LeftShoulder LeftArm
      LeftArm LeftForeArm
      LeftForeArm LeftHand
      LeftHand LeftHand_dum1 LeftHand_dum2
      LeftHand_dum1 LeftHandThumb1
      RightShoulder RightArm
      RightArm RightForeArm
      RightForeArm RightHand
      RightHand RightHand_dum1 RightHand_dum2
      RightHand_dum1 RightHandThumb1
      LeftUpLeg LeftLeg
      LeftLeg LeftFoot
      LeftFoot LeftToeBase
      RightUpLeg RightLeg
      RightLeg RightFoot
      RightFoot RightToeBase
   end

# File created by Blade
# Date/Time:  Tue Jan 27 17:16:27 2015
# Frame Rate: 120.000 fps
#------------------------------------------------------
:FULLY-SPECIFIED
:DEGREES
974
root -2.850152 36.813238 0.830999 2.745114 -1.677180 3.906341
Spine 3.473153 9.431460 -4.225049
Head -3.812658 -7.896801 4.029425
LeftShoulder -3.974764 -12.527547 12.058440
LeftArm -9.180110 -17.318151 -32.187425
LeftForeArm 6.057614 -0.000000 62.480768
LeftHand -17.301408 -0.000000 58.892495
LeftHandThumb1 -26.253704 0.000000 33.147579
RightShoulder -4.507809 -18.175991 0.629077
RightArm 17.029245 -16.439572 56.833290
RightForeArm -175.388169 -0.000000 33.666632
RightHand -0.080887 -0.000000 6.452931
RightHandThumb1 -24.326973 -0.000000 -32.862282
LeftUpLeg -66.367954 10.125225 1.914763
LeftLeg 90.561043 -0.000000 -0.000000
LeftFoot -2.319700 -4.450039 -23.049117
LeftToeBase 14.774286 -0.000000 -0.000000
RightUpLeg -10.691289 -8.961522 3.514181
RightLeg 19.412460 -0.000000 -0.000000
RightFoot -17.023129 -12.156549 -0.123437
RightToeBase 3.805377 -0.000000 -0.000000
975
root -2.853131 36.812008 0.839082 2.638970 -1.823424 3.925207
Spine 3.578232 9.560038 -4.298675
Head -3.767995 -7.845434 3.990493
LeftShoulder -3.978584 -12.539006 12.066811
LeftArm -9.264559 -17.320456 -32.049090
LeftForeArm 5.960154 0.000000 62.491418
LeftHand -17.360790 -0.000000 58.868797
LeftHandThumb1 -26.253704 0.000000 33.147579
RightShoulder -4.471566 -18.205932 0.633483
RightArm 17.161971 -16.617218 56.719728
RightForeArm -175.851266 -0.000000 33.568627
RightHand 0.009131 -0.000000 6.633538
RightHandThumb1 -24.326973 -0.000000 -32.862282
LeftUpLeg -66.434891 10.113976 1.955963
LeftLeg 90.403332 -0.000000 -0.000000
LeftFoot -2.216733 -4.612657 -23.051584
LeftToeBase 14.509106 -0.000000 -0.000000
RightUpLeg -10.608214 -8.915403 3.481271
RightLeg 19.476107 -0.000000 -0.000000
RightFoot -17.040747 -12.096269 -0.144212
RightToeBase 3.779186 -0.000000 -0.000000
976
root -2.855301 36.811082 0.847368 2.524054 -1.981030 3.941006
Spine 3.694311 9.693547 -4.362601
Head -3.735623 -7.856191 3.965137
LeftShoulder -3.983648 -12.553244 12.052324
LeftArm -9.353623 -17.296908 -31.875494
LeftForeArm 5.867668 0.000000 62.521735
LeftHand -17.443696 -0.000000 58.815503
LeftHandThumb1 -26.253704 0.000000 33.147579
RightShoulder -4.448013 -18.225517 0.647501
RightArm 17.282968 -16.731225 56.608425
RightForeArm -176.183832 -0.000000 33.451816
RightHand 0.020286 -0.000000 6.573941
RightHandThumb1 -24.326973 -0.000000 -32.862282
LeftUpLeg -66.494692 10.127922 1.996146
LeftLeg 90.262745 -0.000000 -0.000000
LeftFoot -2.128317 -4.777383 -23.057328
LeftToeBase 14.490679 -0.000000 -0.000000
RightUpLeg -10.515016 -8.837622 3.447652
RightLeg 19.532452 -0.000000 -0.000000
RightFoot -17.048795 -12.053965 -0.153876
RightToeBase 3.709037 -0.000000 -0.000000
977
root -2.857931 36.809477 0.856382 2.418372 -2.112999 3.966130
Spine 3.791119 9.797765 -4.438800
Head -3.689330 -7.818802 3.952764
LeftShoulder -3.972956 -12.578121 12.074965
LeftArm -9.496705 -17.298792 -31.750021
LeftForeArm 5.762790 -0.000000 62.568793
LeftHand -17.408514 0.000000 58.567379
LeftHandThumb1 -26.253704 0.000000 33.147579
RightShoulder -4.425457 -18.236942 0.659108
RightArm 17.375131 -16.855269 56.512463
RightForeArm -176.428967 -0.000000 33.340154
RightHand 0.062706 -0.000000 6.575534
RightHandThumb1 -24.326973 -0.000000 -32.862282
LeftUpLeg -66.547421 10.116882 2.049047
LeftLeg 90.112508 -0.000000 -0.000000
LeftFoot -2.032774 -4.975211 -22.973360
LeftToeBase 14.346842 -0.000000 -0.000000
RightUpLeg -10.425156 -8.790304 3.410149
RightLeg 19.583526 -0.000000 -0.000000
RightFoot -17.082826 -12.026532 -0.175326
RightToeBase 3.769846 -0.000000 -0.000000
978
root -2.859719 36.807570 0.863494 2.328413 -2.236230 3.978187
Spine 3.869792 9.857301 -4.482937
Head -3.623474 -7.706531 3.839345
LeftShoulder -3.989367 -12.542107 12.052878
LeftArm -9.596830 -17.342850 -31.590354
LeftForeArm 5.677992 -0.000000 62.573889
LeftHand -17.278527 -0.000000 58.545512
LeftHandThumb1 -26.253704 0.000000 33.147579
RightShoulder -4.376180 -18.246564 0.638737
RightArm 17.457341 -16.965183 56.429511
RightForeArm -176.634726 0.000000 33.224090
RightHand 0.073572 -0.000000 6.468762
RightHandThumb1 -24.326973 -0.000000 -32.862282
LeftUpLeg -66.644529 10.110159 2.070208
LeftLeg 89.972771 -0.000000 -0.000000
LeftFoot -1.905826 -5.050447 -22.913649
LeftToeBase 14.106620 -0.000000 -0.000000
RightUpLeg -10.351722 -8.755504 3.389305
RightLeg 19.629437 -0.000000 -0.000000
RightFoot -17.101446 -11.999239 -0.206967
RightToeBase 3.725154 -0.000000 -0.000000
979
root -2.862673 36.806441 0.872719 2.214087 -2.375865 3.997661
Spine 3.977132 9.941806 -4.540067
Head -3.584071 -7.672412 3.809287
LeftShoulder -3.988853 -12.552635 12.030114
LeftArm -9.733458 -17.363246 -31.423352
LeftForeArm 5.645078 0.000000 62.633958
LeftHand -17.309542 -0.000000 58.403289
LeftHandThumb1 -26.253704 0.000000 33.147579
RightShoulder -4.369198 -18.256139 0.648302
RightArm 17.556752 -17.050646 56.336356
RightForeArm -176.849713 -0.000000 33.117744
RightHand 0.179778 -0.000000 6.336458
RightHandThumb1 -24.326973 -0.000000 -32.862282
LeftUpLeg -66.687595 10.134463 2.107195
LeftLeg 89.830272 -0.000000 -0.000000
LeftFoot -1.836851 -5.217544 -22.871590
LeftToeBase 14.102117 -0.000000 -0.000000
RightUpLeg -10.248195 -8.710763 3.357471
RightLeg 19.670708 -0.000000 -0.000000
RightFoot -17.124887 -11.959191 -0.238089
RightToeBase 3.731410 -0.000000 -0.000000
980
root -2.865025 36.805288 0.881929 2.110418 -2.545856 4.019441
Spine 4.058697 10.042059 -4.604055
Head -3.510159 -7.586429 3.764685
LeftShoulder -4.006945 -12.509815 12.007625
LeftArm -9.827605 -17.416102 -31.279359
LeftForeArm 5.605414 -0.000000 62.704687
LeftHand -17.317584 -0.000000 58.287233
LeftHandThumb1 -26.253704 0.000000 33.147579
RightShoulder -4.351405 -18.261667 0.659985
RightArm 17.627712 -17.126509 56.252274
RightForeArm -177.024043 -0.000000 33.017281
RightHand 0.235071 -0.000000 6.249828
RightHandThumb1 -24.326973 -0.000000 -32.862282
LeftUpLeg -66.734192 10.190881 2.141966
LeftLeg 89.684053 -0.000000 -0.000000
LeftFoot -1.727452 -5.346299 -22.816101
LeftToeBase 14.016688 -0.000000 -0.000000
RightUpLeg -10.156742 -8.639736 3.322921
RightLeg 19.709506 -0.000000 -0.000000
RightFoot -17.136685 -11.915744 -0.268620
RightToeBase 3.719423 -0.000000 -0.000000
981
root -2.867202 36.803985 0.891555 2.007990 -2.685587 4.039108
Spine 4.137660 10.087561 -4.655926
Head -3.437411 -7.509955 3.685973
LeftShoulder -4.053820 -12.468405 11.979734
LeftArm -9.905439 -17.461748 -31.143666
LeftForeArm 5.573406 -0.000000 62.768873
LeftHand -17.351843 -0.000000 58.205365
LeftHandThumb1 -26.253704 0.000000 33.147579
RightShoulder -4.326847 -18.268353 0.656723
RightArm 17.688485 -17.174921 56.190106
RightForeArm -177.222318 -0.000000 32.896178
RightHand 0.143293 -0.000000 6.148623
RightHandThumb1 -24.326973 -0.000000 -32.862282
LeftUpLeg -66.775647 10.223087 2.174000
LeftLeg 89.533733 -0.000000 -0.000000
LeftFoot -1.690599 -5.395381 -22.712737
LeftToeBase 14.131103 -0.000000 -0.000000
RightUpLeg -10.059459 -8.567878 3.288801
RightLeg 19.741634 -0.000000 -0.000000
RightFoot -17.170616 -11.881853 -0.247331
RightToeBase 3.691928 -0.000000 -0.000000
982
root -2.870931 36.802985 0.900016 1.907523 -2.837641 4.053369
Spine 4.216917 10.161385 -4.696602
Head -3.343143 -7.417954 3.561383
LeftShoulder -4.066249 -12.436212 11.924192
LeftArm -10.005473 -17.526469 -30.978233
LeftForeArm 5.492283 -0.000000 62.822843
LeftHand -17.244820 0.000000 58.081056
LeftHandThumb1 -26.253704 0.000000 33.147579
RightShoulder -4.312882 -18.291774 0.652789
RightArm 17.731643 -17.167483 56.163984
RightForeArm -177.400200 0.000000 32.813902
RightHand 0.177287 -0.000000 6.122354
RightHandThumb1 -24.326973 -0.000000 -32.862282
LeftUpLeg -66.805997 10.294004 2.197092
LeftLeg 89.356430 -0.000000 -0.000000
LeftFoot -1.578666 -5.480502 -22.818925
LeftToeBase 13.996675 -0.000000 -0.000000
RightUpLeg -9.963179 -8.525252 3.264126
RightLeg 19.767280 -0.000000 -0.000000
RightFoot -17.183647 -11.826503 -0.286119
RightToeBase 3.694056 -0.000000 -0.000000
983
root -2.877772 36.800978 0.911762 1.792385 -2.998089 4.057441
Spine 4.306287 10.234332 -4.742319
Head -3.272178 -7.324060 3.535064
LeftShoulder -4.096933 -12.416174 11.907912
LeftArm -10.109850 -17.609865 -30.859843
LeftForeArm 5.470400 -0.000000 62.914934
LeftHand -17.333582 -0.000000 57.942131
LeftHandThumb1 -26.253704 0.000000 33.147579
RightShoulder -4.318866 -18.300432 0.677237
RightArm 17.779565 -17.197839 56.096087
RightForeArm -177.445614 0.000000 32.742459
RightHand 0.234350 0.000000 6.078086
RightHandThumb1 -24.326973 -0.000000 -32.862282
LeftUpLeg -66.811864 10.385907 2.241151
LeftLeg 89.194213 -0.000000 -0.000000
LeftFoot -1.550040 -5.506186 -22.809211
LeftToeBase 14.034185 -0.000000 -0.000000
RightUpLeg -9.843652 -8.450300 3.248065
RightLeg 19.790067 -0.000000 -0.000000
RightFoot -17.214597 -11.765611 -0.299209
RightToeBase 3.715270 -0.000000 -0.000000
984
root -2.881441 36.799396 0.923373 1.705595 -3.132866 4.064349
Spine 4.362264 10.273011 -4.778717
Head -3.218297 -7.238459 3.477906
LeftShoulder -4.140302 -12.414502 11.886519
LeftArm -10.221629 -17.692852 -30.754748
LeftForeArm 5.449518 -0.000000 62.985438
LeftHand -17.262983 -0.000000 57.818265
LeftHandThumb1 -26.253704 0.000000 33.147579
RightShoulder -4.336258 -18.332881 0.690266
RightArm 17.825410 -17.191769 56.048569
RightForeArm -177.446222 -0.000000 32.657355
RightHand 0.272459 -0.000000 5.995478
RightHandThumb1 -24.326973 -0.000000 -32.862282
LeftUpLeg -66.836428 10.438700 2.287334
LeftLeg 89.017782 -0.000000 -0.000000
LeftFoot -1.467415 -5.545196 -22.893819
LeftToeBase 13.930481 -0.000000 -0.000000
RightUpLeg -9.750923 -8.451354 3.229975
RightLeg 19.805235 -0.000000 -0.000000
RightFoot -17.230323 -11.669474 -0.334532
RightToeBase 3.659174 -0.000000 -0.000000
